<svg id="visual" viewBox="0 0 900 600" width="900" height="600" xmlns="http://www.w3.org/2000/svg" xmlns:xlink="http://www.w3.org/1999/xlink" version="1.1"><rect x="0" y="0" width="900" height="600" fill="#FF7E00"></rect><defs><linearGradient id="grad1_0" x1="33.3%" y1="100%" x2="100%" y2="0%"><stop offset="20%" stop-color="#ff7e00" stop-opacity="1"></stop><stop offset="80%" stop-color="#ff7e00" stop-opacity="1"></stop></linearGradient></defs><defs><linearGradient id="grad2_0" x1="0%" y1="100%" x2="66.7%" y2="0%"><stop offset="20%" stop-color="#ff7e00" stop-opacity="1"></stop><stop offset="80%" stop-color="#ff7e00" stop-opacity="1"></stop></linearGradient></defs><g transform="translate(900, 600)"><path d="M-297.5 0C-296.7 -42.2 -296 -84.4 -274.8 -113.8C-253.7 -143.3 -212.1 -160 -181.7 -181.7C-151.3 -203.5 -132.1 -230.2 -103.7 -250.4C-75.3 -270.5 -37.6 -284 0 -297.5L0 0Z" fill="#FF9E40"></path></g><g transform="translate(0, 0)"><path d="M297.5 0C294.2 39.5 291 78.9 274.8 113.8C258.6 148.7 229.5 179 198 198C166.5 217 132.5 224.6 99.1 239.3C65.7 254 32.9 275.7 0 297.5L0 0Z" fill="#FF9E40"></path></g></svg>